<mxfile host="app.diagrams.net" modified="2023-06-01T13:32:08.293Z" agent="Mozilla/5.0 (X11; Linux x86_64) AppleWebKit/537.36 (KHTML, like Gecko) Chrome/112.0.0.0 Safari/537.36" etag="-D6N-yo4tdpoSFvlD6fl" version="21.3.6" type="device" pages="2">
  <diagram id="C5RBs43oDa-KdzZeNtuy" name="Page-1">
    <mxGraphModel dx="1035" dy="1895" grid="1" gridSize="10" guides="1" tooltips="1" connect="1" arrows="1" fold="1" page="1" pageScale="1" pageWidth="827" pageHeight="1169" math="0" shadow="0">
      <root>
        <mxCell id="WIyWlLk6GJQsqaUBKTNV-0" />
        <mxCell id="WIyWlLk6GJQsqaUBKTNV-1" parent="WIyWlLk6GJQsqaUBKTNV-0" />
        <mxCell id="9JWazKwh_UTNLeAUd6eo-0" value="VirtualBody" style="swimlane;fontStyle=1;align=center;verticalAlign=top;childLayout=stackLayout;horizontal=1;startSize=26;horizontalStack=0;resizeParent=1;resizeParentMax=0;resizeLast=0;collapsible=1;marginBottom=0;" parent="WIyWlLk6GJQsqaUBKTNV-1" vertex="1">
          <mxGeometry x="50" y="-553" width="320" height="242" as="geometry" />
        </mxCell>
        <mxCell id="9JWazKwh_UTNLeAUd6eo-39" value="+ redis_instance" style="text;strokeColor=none;fillColor=none;align=left;verticalAlign=top;spacingLeft=4;spacingRight=4;overflow=hidden;rotatable=0;points=[[0,0.5],[1,0.5]];portConstraint=eastwest;" parent="9JWazKwh_UTNLeAUd6eo-0" vertex="1">
          <mxGeometry y="26" width="320" height="26" as="geometry" />
        </mxCell>
        <mxCell id="9JWazKwh_UTNLeAUd6eo-1" value="+ pubsub" style="text;strokeColor=none;fillColor=none;align=left;verticalAlign=top;spacingLeft=4;spacingRight=4;overflow=hidden;rotatable=0;points=[[0,0.5],[1,0.5]];portConstraint=eastwest;" parent="9JWazKwh_UTNLeAUd6eo-0" vertex="1">
          <mxGeometry y="52" width="320" height="26" as="geometry" />
        </mxCell>
        <mxCell id="9JWazKwh_UTNLeAUd6eo-40" value="+ tsensor: int" style="text;strokeColor=none;fillColor=none;align=left;verticalAlign=top;spacingLeft=4;spacingRight=4;overflow=hidden;rotatable=0;points=[[0,0.5],[1,0.5]];portConstraint=eastwest;" parent="9JWazKwh_UTNLeAUd6eo-0" vertex="1">
          <mxGeometry y="78" width="320" height="26" as="geometry" />
        </mxCell>
        <mxCell id="9JWazKwh_UTNLeAUd6eo-41" value="+ gsensor: int" style="text;strokeColor=none;fillColor=none;align=left;verticalAlign=top;spacingLeft=4;spacingRight=4;overflow=hidden;rotatable=0;points=[[0,0.5],[1,0.5]];portConstraint=eastwest;" parent="9JWazKwh_UTNLeAUd6eo-0" vertex="1">
          <mxGeometry y="104" width="320" height="26" as="geometry" />
        </mxCell>
        <mxCell id="9JWazKwh_UTNLeAUd6eo-3" value="+ " style="text;strokeColor=none;fillColor=none;align=left;verticalAlign=top;spacingLeft=4;spacingRight=4;overflow=hidden;rotatable=0;points=[[0,0.5],[1,0.5]];portConstraint=eastwest;" parent="9JWazKwh_UTNLeAUd6eo-0" vertex="1">
          <mxGeometry y="130" width="320" height="26" as="geometry" />
        </mxCell>
        <mxCell id="9JWazKwh_UTNLeAUd6eo-4" value="" style="line;strokeWidth=1;fillColor=none;align=left;verticalAlign=middle;spacingTop=-1;spacingLeft=3;spacingRight=3;rotatable=0;labelPosition=right;points=[];portConstraint=eastwest;" parent="9JWazKwh_UTNLeAUd6eo-0" vertex="1">
          <mxGeometry y="156" width="320" height="8" as="geometry" />
        </mxCell>
        <mxCell id="9JWazKwh_UTNLeAUd6eo-5" value="+ get_perceptions() " style="text;strokeColor=none;fillColor=none;align=left;verticalAlign=top;spacingLeft=4;spacingRight=4;overflow=hidden;rotatable=0;points=[[0,0.5],[1,0.5]];portConstraint=eastwest;" parent="9JWazKwh_UTNLeAUd6eo-0" vertex="1">
          <mxGeometry y="164" width="320" height="26" as="geometry" />
        </mxCell>
        <mxCell id="9JWazKwh_UTNLeAUd6eo-6" value="+ send_command(command)" style="text;strokeColor=none;fillColor=none;align=left;verticalAlign=top;spacingLeft=4;spacingRight=4;overflow=hidden;rotatable=0;points=[[0,0.5],[1,0.5]];portConstraint=eastwest;" parent="9JWazKwh_UTNLeAUd6eo-0" vertex="1">
          <mxGeometry y="190" width="320" height="26" as="geometry" />
        </mxCell>
        <mxCell id="9JWazKwh_UTNLeAUd6eo-7" value="+ " style="text;strokeColor=none;fillColor=none;align=left;verticalAlign=top;spacingLeft=4;spacingRight=4;overflow=hidden;rotatable=0;points=[[0,0.5],[1,0.5]];portConstraint=eastwest;" parent="9JWazKwh_UTNLeAUd6eo-0" vertex="1">
          <mxGeometry y="216" width="320" height="26" as="geometry" />
        </mxCell>
        <mxCell id="9JWazKwh_UTNLeAUd6eo-8" value="Agent" style="swimlane;fontStyle=1;align=center;verticalAlign=top;childLayout=stackLayout;horizontal=1;startSize=26;horizontalStack=0;resizeParent=1;resizeParentMax=0;resizeLast=0;collapsible=1;marginBottom=0;" parent="WIyWlLk6GJQsqaUBKTNV-1" vertex="1">
          <mxGeometry x="530" y="-230" width="280" height="138" as="geometry" />
        </mxCell>
        <mxCell id="9JWazKwh_UTNLeAUd6eo-9" value="+ redis_instance" style="text;strokeColor=none;fillColor=none;align=left;verticalAlign=top;spacingLeft=4;spacingRight=4;overflow=hidden;rotatable=0;points=[[0,0.5],[1,0.5]];portConstraint=eastwest;" parent="9JWazKwh_UTNLeAUd6eo-8" vertex="1">
          <mxGeometry y="26" width="280" height="26" as="geometry" />
        </mxCell>
        <mxCell id="9JWazKwh_UTNLeAUd6eo-10" value="+ contr: Controller" style="text;strokeColor=none;fillColor=none;align=left;verticalAlign=top;spacingLeft=4;spacingRight=4;overflow=hidden;rotatable=0;points=[[0,0.5],[1,0.5]];portConstraint=eastwest;" parent="9JWazKwh_UTNLeAUd6eo-8" vertex="1">
          <mxGeometry y="52" width="280" height="26" as="geometry" />
        </mxCell>
        <mxCell id="9JWazKwh_UTNLeAUd6eo-11" value="+" style="text;strokeColor=none;fillColor=none;align=left;verticalAlign=top;spacingLeft=4;spacingRight=4;overflow=hidden;rotatable=0;points=[[0,0.5],[1,0.5]];portConstraint=eastwest;" parent="9JWazKwh_UTNLeAUd6eo-8" vertex="1">
          <mxGeometry y="78" width="280" height="26" as="geometry" />
        </mxCell>
        <mxCell id="9JWazKwh_UTNLeAUd6eo-13" value="" style="line;strokeWidth=1;fillColor=none;align=left;verticalAlign=middle;spacingTop=-1;spacingLeft=3;spacingRight=3;rotatable=0;labelPosition=right;points=[];portConstraint=eastwest;" parent="9JWazKwh_UTNLeAUd6eo-8" vertex="1">
          <mxGeometry y="104" width="280" height="8" as="geometry" />
        </mxCell>
        <mxCell id="9JWazKwh_UTNLeAUd6eo-14" value="+ work" style="text;strokeColor=none;fillColor=none;align=left;verticalAlign=top;spacingLeft=4;spacingRight=4;overflow=hidden;rotatable=0;points=[[0,0.5],[1,0.5]];portConstraint=eastwest;" parent="9JWazKwh_UTNLeAUd6eo-8" vertex="1">
          <mxGeometry y="112" width="280" height="26" as="geometry" />
        </mxCell>
        <mxCell id="9JWazKwh_UTNLeAUd6eo-15" value="Controller" style="swimlane;fontStyle=1;align=center;verticalAlign=top;childLayout=stackLayout;horizontal=1;startSize=26;horizontalStack=0;resizeParent=1;resizeParentMax=0;resizeLast=0;collapsible=1;marginBottom=0;" parent="WIyWlLk6GJQsqaUBKTNV-1" vertex="1">
          <mxGeometry x="50" y="-220" width="320" height="164" as="geometry" />
        </mxCell>
        <mxCell id="9JWazKwh_UTNLeAUd6eo-16" value="+ touchsensor: int" style="text;strokeColor=none;fillColor=none;align=left;verticalAlign=top;spacingLeft=4;spacingRight=4;overflow=hidden;rotatable=0;points=[[0,0.5],[1,0.5]];portConstraint=eastwest;" parent="9JWazKwh_UTNLeAUd6eo-15" vertex="1">
          <mxGeometry y="26" width="320" height="26" as="geometry" />
        </mxCell>
        <mxCell id="9JWazKwh_UTNLeAUd6eo-36" value="+ gyrosensor: int" style="text;strokeColor=none;fillColor=none;align=left;verticalAlign=top;spacingLeft=4;spacingRight=4;overflow=hidden;rotatable=0;points=[[0,0.5],[1,0.5]];portConstraint=eastwest;" parent="9JWazKwh_UTNLeAUd6eo-15" vertex="1">
          <mxGeometry y="52" width="320" height="26" as="geometry" />
        </mxCell>
        <mxCell id="9JWazKwh_UTNLeAUd6eo-18" value="+ v_body: VirtualBody" style="text;strokeColor=none;fillColor=none;align=left;verticalAlign=top;spacingLeft=4;spacingRight=4;overflow=hidden;rotatable=0;points=[[0,0.5],[1,0.5]];portConstraint=eastwest;" parent="9JWazKwh_UTNLeAUd6eo-15" vertex="1">
          <mxGeometry y="78" width="320" height="26" as="geometry" />
        </mxCell>
        <mxCell id="9JWazKwh_UTNLeAUd6eo-19" value="" style="line;strokeWidth=1;fillColor=none;align=left;verticalAlign=middle;spacingTop=-1;spacingLeft=3;spacingRight=3;rotatable=0;labelPosition=right;points=[];portConstraint=eastwest;" parent="9JWazKwh_UTNLeAUd6eo-15" vertex="1">
          <mxGeometry y="104" width="320" height="8" as="geometry" />
        </mxCell>
        <mxCell id="9JWazKwh_UTNLeAUd6eo-20" value="+ commands()" style="text;strokeColor=none;fillColor=none;align=left;verticalAlign=top;spacingLeft=4;spacingRight=4;overflow=hidden;rotatable=0;points=[[0,0.5],[1,0.5]];portConstraint=eastwest;" parent="9JWazKwh_UTNLeAUd6eo-15" vertex="1">
          <mxGeometry y="112" width="320" height="26" as="geometry" />
        </mxCell>
        <mxCell id="9JWazKwh_UTNLeAUd6eo-25" value="+ " style="text;strokeColor=none;fillColor=none;align=left;verticalAlign=top;spacingLeft=4;spacingRight=4;overflow=hidden;rotatable=0;points=[[0,0.5],[1,0.5]];portConstraint=eastwest;" parent="9JWazKwh_UTNLeAUd6eo-15" vertex="1">
          <mxGeometry y="138" width="320" height="26" as="geometry" />
        </mxCell>
        <mxCell id="9JWazKwh_UTNLeAUd6eo-26" value="PhysicalBody" style="swimlane;fontStyle=1;align=center;verticalAlign=top;childLayout=stackLayout;horizontal=1;startSize=26;horizontalStack=0;resizeParent=1;resizeParentMax=0;resizeLast=0;collapsible=1;marginBottom=0;" parent="WIyWlLk6GJQsqaUBKTNV-1" vertex="1">
          <mxGeometry x="507" y="-562" width="320" height="294" as="geometry" />
        </mxCell>
        <mxCell id="9JWazKwh_UTNLeAUd6eo-44" value="+ redis_instance" style="text;strokeColor=none;fillColor=none;align=left;verticalAlign=top;spacingLeft=4;spacingRight=4;overflow=hidden;rotatable=0;points=[[0,0.5],[1,0.5]];portConstraint=eastwest;" parent="9JWazKwh_UTNLeAUd6eo-26" vertex="1">
          <mxGeometry y="26" width="320" height="26" as="geometry" />
        </mxCell>
        <mxCell id="9JWazKwh_UTNLeAUd6eo-45" value="+ pubsub" style="text;strokeColor=none;fillColor=none;align=left;verticalAlign=top;spacingLeft=4;spacingRight=4;overflow=hidden;rotatable=0;points=[[0,0.5],[1,0.5]];portConstraint=eastwest;" parent="9JWazKwh_UTNLeAUd6eo-26" vertex="1">
          <mxGeometry y="52" width="320" height="26" as="geometry" />
        </mxCell>
        <mxCell id="9JWazKwh_UTNLeAUd6eo-27" value="- sensors" style="text;strokeColor=none;fillColor=none;align=left;verticalAlign=top;spacingLeft=4;spacingRight=4;overflow=hidden;rotatable=0;points=[[0,0.5],[1,0.5]];portConstraint=eastwest;" parent="9JWazKwh_UTNLeAUd6eo-26" vertex="1">
          <mxGeometry y="78" width="320" height="26" as="geometry" />
        </mxCell>
        <mxCell id="9JWazKwh_UTNLeAUd6eo-28" value="- actuators" style="text;strokeColor=none;fillColor=none;align=left;verticalAlign=top;spacingLeft=4;spacingRight=4;overflow=hidden;rotatable=0;points=[[0,0.5],[1,0.5]];portConstraint=eastwest;" parent="9JWazKwh_UTNLeAUd6eo-26" vertex="1">
          <mxGeometry y="104" width="320" height="26" as="geometry" />
        </mxCell>
        <mxCell id="9JWazKwh_UTNLeAUd6eo-29" value="+ " style="text;strokeColor=none;fillColor=none;align=left;verticalAlign=top;spacingLeft=4;spacingRight=4;overflow=hidden;rotatable=0;points=[[0,0.5],[1,0.5]];portConstraint=eastwest;" parent="9JWazKwh_UTNLeAUd6eo-26" vertex="1">
          <mxGeometry y="130" width="320" height="26" as="geometry" />
        </mxCell>
        <mxCell id="9JWazKwh_UTNLeAUd6eo-30" value="" style="line;strokeWidth=1;fillColor=none;align=left;verticalAlign=middle;spacingTop=-1;spacingLeft=3;spacingRight=3;rotatable=0;labelPosition=right;points=[];portConstraint=eastwest;" parent="9JWazKwh_UTNLeAUd6eo-26" vertex="1">
          <mxGeometry y="156" width="320" height="8" as="geometry" />
        </mxCell>
        <mxCell id="9JWazKwh_UTNLeAUd6eo-33" value="+ send_percepts()" style="text;strokeColor=none;fillColor=none;align=left;verticalAlign=top;spacingLeft=4;spacingRight=4;overflow=hidden;rotatable=0;points=[[0,0.5],[1,0.5]];portConstraint=eastwest;" parent="9JWazKwh_UTNLeAUd6eo-26" vertex="1">
          <mxGeometry y="164" width="320" height="26" as="geometry" />
        </mxCell>
        <mxCell id="9JWazKwh_UTNLeAUd6eo-43" value="+ get_commands(): " style="text;strokeColor=none;fillColor=none;align=left;verticalAlign=top;spacingLeft=4;spacingRight=4;overflow=hidden;rotatable=0;points=[[0,0.5],[1,0.5]];portConstraint=eastwest;" parent="9JWazKwh_UTNLeAUd6eo-26" vertex="1">
          <mxGeometry y="190" width="320" height="26" as="geometry" />
        </mxCell>
        <mxCell id="9JWazKwh_UTNLeAUd6eo-32" value="+ calibrate_actuator(actuator, value)" style="text;strokeColor=none;fillColor=none;align=left;verticalAlign=top;spacingLeft=4;spacingRight=4;overflow=hidden;rotatable=0;points=[[0,0.5],[1,0.5]];portConstraint=eastwest;" parent="9JWazKwh_UTNLeAUd6eo-26" vertex="1">
          <mxGeometry y="216" width="320" height="26" as="geometry" />
        </mxCell>
        <mxCell id="9JWazKwh_UTNLeAUd6eo-34" value="+ talk()" style="text;strokeColor=none;fillColor=none;align=left;verticalAlign=top;spacingLeft=4;spacingRight=4;overflow=hidden;rotatable=0;points=[[0,0.5],[1,0.5]];portConstraint=eastwest;" parent="9JWazKwh_UTNLeAUd6eo-26" vertex="1">
          <mxGeometry y="242" width="320" height="26" as="geometry" />
        </mxCell>
        <mxCell id="9JWazKwh_UTNLeAUd6eo-35" value="+ " style="text;strokeColor=none;fillColor=none;align=left;verticalAlign=top;spacingLeft=4;spacingRight=4;overflow=hidden;rotatable=0;points=[[0,0.5],[1,0.5]];portConstraint=eastwest;" parent="9JWazKwh_UTNLeAUd6eo-26" vertex="1">
          <mxGeometry y="268" width="320" height="26" as="geometry" />
        </mxCell>
        <mxCell id="9JWazKwh_UTNLeAUd6eo-37" value="" style="endArrow=diamondThin;endFill=0;endSize=24;html=1;rounded=0;entryX=0.371;entryY=-0.015;entryDx=0;entryDy=0;entryPerimeter=0;exitX=0.373;exitY=1.064;exitDx=0;exitDy=0;exitPerimeter=0;" parent="WIyWlLk6GJQsqaUBKTNV-1" source="9JWazKwh_UTNLeAUd6eo-7" target="9JWazKwh_UTNLeAUd6eo-15" edge="1">
          <mxGeometry width="160" relative="1" as="geometry">
            <mxPoint x="170" y="-280" as="sourcePoint" />
            <mxPoint x="330" y="-280" as="targetPoint" />
          </mxGeometry>
        </mxCell>
        <mxCell id="9JWazKwh_UTNLeAUd6eo-38" value="" style="endArrow=diamondThin;endFill=0;endSize=24;html=1;rounded=0;entryX=0;entryY=0.5;entryDx=0;entryDy=0;exitX=0.999;exitY=1.043;exitDx=0;exitDy=0;exitPerimeter=0;" parent="WIyWlLk6GJQsqaUBKTNV-1" source="9JWazKwh_UTNLeAUd6eo-36" target="9JWazKwh_UTNLeAUd6eo-11" edge="1">
          <mxGeometry width="160" relative="1" as="geometry">
            <mxPoint x="370" y="-280" as="sourcePoint" />
            <mxPoint x="530" y="-280" as="targetPoint" />
          </mxGeometry>
        </mxCell>
        <mxCell id="9JWazKwh_UTNLeAUd6eo-42" value="&lt;pre style=&quot;background-color: #2b2b2b ; color: #a9b7c6 ; font-family: &amp;#34;jetbrains mono&amp;#34; , monospace ; font-size: 9 8pt&quot;&gt;&lt;span style=&quot;color: #94558d&quot;&gt;self&lt;/span&gt;._t_sensor = sensors[&lt;span style=&quot;color: #6897bb&quot;&gt;0&lt;/span&gt;]&lt;br&gt;&lt;span style=&quot;color: #94558d&quot;&gt;self&lt;/span&gt;._old_t_sensor_value = -&lt;span style=&quot;color: #6897bb&quot;&gt;1&lt;br&gt;&lt;/span&gt;&lt;span style=&quot;color: #94558d&quot;&gt;self&lt;/span&gt;._is_pressed = &lt;span style=&quot;color: #6897bb&quot;&gt;0&lt;br&gt;&lt;/span&gt;&lt;span style=&quot;color: #6897bb&quot;&gt;&lt;br&gt;&lt;/span&gt;&lt;span style=&quot;color: #94558d&quot;&gt;self&lt;/span&gt;._g_sensor = sensors[&lt;span style=&quot;color: #6897bb&quot;&gt;1&lt;/span&gt;]&lt;br&gt;&lt;span style=&quot;color: #94558d&quot;&gt;self&lt;/span&gt;._old_g_sensor_value = -&lt;span style=&quot;color: #6897bb&quot;&gt;1&lt;br&gt;&lt;/span&gt;&lt;span style=&quot;color: #94558d&quot;&gt;self&lt;/span&gt;._angle = &lt;span style=&quot;color: #6897bb&quot;&gt;0&lt;br&gt;&lt;/span&gt;&lt;span style=&quot;color: #6897bb&quot;&gt;&lt;br&gt;&lt;/span&gt;&lt;span style=&quot;color: #94558d&quot;&gt;self&lt;/span&gt;.sound = Sound()&lt;br&gt;&lt;span style=&quot;color: #94558d&quot;&gt;self&lt;/span&gt;._can_talk = &lt;span style=&quot;color: #cc7832&quot;&gt;False&lt;br&gt;&lt;/span&gt;&lt;span style=&quot;color: #cc7832&quot;&gt;&lt;br&gt;&lt;/span&gt;&lt;span style=&quot;color: #94558d&quot;&gt;self&lt;/span&gt;._m_actuators = m_actuators&lt;br&gt;&lt;span style=&quot;color: #94558d&quot;&gt;self&lt;/span&gt;._m_actuators_values = [&lt;span style=&quot;color: #6897bb&quot;&gt;0&lt;/span&gt;&lt;span style=&quot;color: #cc7832&quot;&gt;, &lt;/span&gt;&lt;span style=&quot;color: #6897bb&quot;&gt;0&lt;/span&gt;]&lt;br&gt;&lt;br&gt;&lt;span style=&quot;color: #94558d&quot;&gt;self&lt;/span&gt;.redis_instance = redis.Redis(&lt;span style=&quot;color: #aa4926&quot;&gt;host&lt;/span&gt;=REDIS_HOST&lt;span style=&quot;color: #cc7832&quot;&gt;, &lt;/span&gt;&lt;span style=&quot;color: #aa4926&quot;&gt;port&lt;/span&gt;=REDIS_PORT&lt;span style=&quot;color: #cc7832&quot;&gt;, &lt;/span&gt;&lt;span style=&quot;color: #aa4926&quot;&gt;decode_responses&lt;/span&gt;=&lt;span style=&quot;color: #cc7832&quot;&gt;True&lt;/span&gt;)&lt;br&gt;&lt;span style=&quot;color: #94558d&quot;&gt;self&lt;/span&gt;.pubsub = &lt;span style=&quot;color: #94558d&quot;&gt;self&lt;/span&gt;.redis_instance.pubsub()&lt;br&gt;&lt;span style=&quot;color: #94558d&quot;&gt;self&lt;/span&gt;.pubsub.subscribe(CONTROLLER_TOPIC)&lt;/pre&gt;" style="text;html=1;strokeColor=none;fillColor=none;align=center;verticalAlign=middle;whiteSpace=wrap;rounded=0;" parent="WIyWlLk6GJQsqaUBKTNV-1" vertex="1">
          <mxGeometry x="700" y="-562" width="966" height="260" as="geometry" />
        </mxCell>
      </root>
    </mxGraphModel>
  </diagram>
  <diagram id="1UBkaPoCO9dvnZDakx3T" name="Pagina-2">
    <mxGraphModel dx="880" dy="1017" grid="0" gridSize="10" guides="1" tooltips="1" connect="1" arrows="1" fold="1" page="0" pageScale="1" pageWidth="827" pageHeight="1169" math="0" shadow="0">
      <root>
        <mxCell id="0" />
        <mxCell id="1" parent="0" />
        <mxCell id="VFH99TEMMroER4uA4Dse-1" value="Agent" style="swimlane;fontStyle=1;align=center;verticalAlign=top;childLayout=stackLayout;horizontal=1;startSize=26;horizontalStack=0;resizeParent=1;resizeParentMax=0;resizeLast=0;collapsible=1;marginBottom=0;" vertex="1" parent="1">
          <mxGeometry x="6" y="-143" width="280" height="141" as="geometry" />
        </mxCell>
        <mxCell id="VFH99TEMMroER4uA4Dse-3" value="+ controller: Controller" style="text;strokeColor=none;fillColor=none;align=left;verticalAlign=top;spacingLeft=4;spacingRight=4;overflow=hidden;rotatable=0;points=[[0,0.5],[1,0.5]];portConstraint=eastwest;" vertex="1" parent="VFH99TEMMroER4uA4Dse-1">
          <mxGeometry y="26" width="280" height="26" as="geometry" />
        </mxCell>
        <mxCell id="VFH99TEMMroER4uA4Dse-5" value="" style="line;strokeWidth=1;fillColor=none;align=left;verticalAlign=middle;spacingTop=-1;spacingLeft=3;spacingRight=3;rotatable=0;labelPosition=right;points=[];portConstraint=eastwest;" vertex="1" parent="VFH99TEMMroER4uA4Dse-1">
          <mxGeometry y="52" width="280" height="8" as="geometry" />
        </mxCell>
        <mxCell id="VFH99TEMMroER4uA4Dse-6" value="+ run&#xa;+ stop" style="text;strokeColor=none;fillColor=none;align=left;verticalAlign=top;spacingLeft=4;spacingRight=4;overflow=hidden;rotatable=0;points=[[0,0.5],[1,0.5]];portConstraint=eastwest;" vertex="1" parent="VFH99TEMMroER4uA4Dse-1">
          <mxGeometry y="60" width="280" height="81" as="geometry" />
        </mxCell>
      </root>
    </mxGraphModel>
  </diagram>
</mxfile>
